name rise35.5848peak51.9257fall54.8793.mot
datacolumns 19
datarows 30
range 15.67493600000000 15.72326700000000
endheader
time	ground_force1_vx	ground_force1_vy	ground_force1_vz	ground_force1_px	ground_force1_py	ground_force1_pz	ground_force2_vx	ground_force2_vy	ground_force2_vz	ground_force2_px	ground_force2_py	ground_force2_pz	ground_torque1_x	ground_torque1_y	ground_torque1_z	ground_torque2_x	ground_torque2_y	ground_torque2_z	
15.67493600000000	9.13222800000000	717.28322200000002	45.81181000000000	0.17692600000000	0.00000000000000	0.12853500000000	0.00000000000000	0.00000000000000	0.00000000000000	0.00000000000000	0.00000000000000	0.00000000000000	0.00000000000000	14.17839800000000	0.00000000000000	0.00000000000000	0.00000000000000	0.00000000000000	
15.67660200000000	8.70080000000000	717.82926499999996	45.77811000000000	0.17596200000000	0.00000000000000	0.12851700000000	0.00000000000000	0.00000000000000	0.00000000000000	0.00000000000000	0.00000000000000	0.00000000000000	0.00000000000000	14.20499000000000	0.00000000000000	0.00000000000000	0.00000000000000	0.00000000000000	
15.67827300000000	8.25844100000000	718.39633900000001	45.74877500000000	0.17498900000000	0.00000000000000	0.12849900000000	0.00000000000000	0.00000000000000	0.00000000000000	0.00000000000000	0.00000000000000	0.00000000000000	0.00000000000000	14.23664400000000	0.00000000000000	0.00000000000000	0.00000000000000	0.00000000000000	
15.67993600000000	7.80506900000000	718.98370899999998	45.72372100000000	0.17400700000000	0.00000000000000	0.12848300000000	0.00000000000000	0.00000000000000	0.00000000000000	0.00000000000000	0.00000000000000	0.00000000000000	0.00000000000000	14.27333700000000	0.00000000000000	0.00000000000000	0.00000000000000	0.00000000000000	
15.68160500000000	7.34063500000000	719.59069199999999	45.70286300000000	0.17301700000000	0.00000000000000	0.12846800000000	0.00000000000000	0.00000000000000	0.00000000000000	0.00000000000000	0.00000000000000	0.00000000000000	0.00000000000000	14.31504000000000	0.00000000000000	0.00000000000000	0.00000000000000	0.00000000000000	
15.68327200000000	6.86512200000000	720.21665700000005	45.68611800000000	0.17202000000000	0.00000000000000	0.12845400000000	0.00000000000000	0.00000000000000	0.00000000000000	0.00000000000000	0.00000000000000	0.00000000000000	0.00000000000000	14.36171600000000	0.00000000000000	0.00000000000000	0.00000000000000	0.00000000000000	
15.68494100000000	6.37854100000000	720.86103200000002	45.67340100000000	0.17101500000000	0.00000000000000	0.12844200000000	0.00000000000000	0.00000000000000	0.00000000000000	0.00000000000000	0.00000000000000	0.00000000000000	0.00000000000000	14.41331700000000	0.00000000000000	0.00000000000000	0.00000000000000	0.00000000000000	
15.68660500000000	5.88093800000000	721.52329999999995	45.66463000000000	0.17000500000000	0.00000000000000	0.12843000000000	0.00000000000000	0.00000000000000	0.00000000000000	0.00000000000000	0.00000000000000	0.00000000000000	0.00000000000000	14.46979000000000	0.00000000000000	0.00000000000000	0.00000000000000	0.00000000000000	
15.68827200000000	5.37238500000000	722.20300199999997	45.65972400000000	0.16898900000000	0.00000000000000	0.12841900000000	0.00000000000000	0.00000000000000	0.00000000000000	0.00000000000000	0.00000000000000	0.00000000000000	0.00000000000000	14.53107100000000	0.00000000000000	0.00000000000000	0.00000000000000	0.00000000000000	
15.68993600000000	4.85298400000000	722.89973699999996	45.65860400000000	0.16797000000000	0.00000000000000	0.12841000000000	0.00000000000000	0.00000000000000	0.00000000000000	0.00000000000000	0.00000000000000	0.00000000000000	0.00000000000000	14.59708900000000	0.00000000000000	0.00000000000000	0.00000000000000	0.00000000000000	
15.69160300000000	4.32286800000000	723.61316199999999	45.66119100000000	0.16694600000000	0.00000000000000	0.12840100000000	0.00000000000000	0.00000000000000	0.00000000000000	0.00000000000000	0.00000000000000	0.00000000000000	0.00000000000000	14.66776400000000	0.00000000000000	0.00000000000000	0.00000000000000	0.00000000000000	
15.69326900000000	3.78219600000000	724.34299499999997	45.66741100000000	0.16592000000000	0.00000000000000	0.12839400000000	0.00000000000000	0.00000000000000	0.00000000000000	0.00000000000000	0.00000000000000	0.00000000000000	0.00000000000000	14.74301000000000	0.00000000000000	0.00000000000000	0.00000000000000	0.00000000000000	
15.69494100000000	3.23115500000000	725.08900500000004	45.67719200000000	0.16489300000000	0.00000000000000	0.12838700000000	0.00000000000000	0.00000000000000	0.00000000000000	0.00000000000000	0.00000000000000	0.00000000000000	0.00000000000000	14.82273000000000	0.00000000000000	0.00000000000000	0.00000000000000	0.00000000000000	
15.69660400000000	2.66995600000000	725.85102400000005	45.69046400000000	0.16386400000000	0.00000000000000	0.12838100000000	0.00000000000000	0.00000000000000	0.00000000000000	0.00000000000000	0.00000000000000	0.00000000000000	0.00000000000000	14.90682000000000	0.00000000000000	0.00000000000000	0.00000000000000	0.00000000000000	
15.69826600000000	2.09883800000000	726.62893299999996	45.70716200000000	0.16283600000000	0.00000000000000	0.12837600000000	0.00000000000000	0.00000000000000	0.00000000000000	0.00000000000000	0.00000000000000	0.00000000000000	0.00000000000000	14.99517000000000	0.00000000000000	0.00000000000000	0.00000000000000	0.00000000000000	
15.69993200000000	1.51806300000000	727.42267000000004	45.72722400000000	0.16180800000000	0.00000000000000	0.12837200000000	0.00000000000000	0.00000000000000	0.00000000000000	0.00000000000000	0.00000000000000	0.00000000000000	0.00000000000000	15.08765900000000	0.00000000000000	0.00000000000000	0.00000000000000	0.00000000000000	
15.70160400000000	0.92791800000000	728.23222299999998	45.75059400000000	0.16078200000000	0.00000000000000	0.12836900000000	0.00000000000000	0.00000000000000	0.00000000000000	0.00000000000000	0.00000000000000	0.00000000000000	0.00000000000000	15.18416100000000	0.00000000000000	0.00000000000000	0.00000000000000	0.00000000000000	
15.70326900000000	0.32871000000000	729.05762600000003	45.77721700000000	0.15975900000000	0.00000000000000	0.12836600000000	0.00000000000000	0.00000000000000	0.00000000000000	0.00000000000000	0.00000000000000	0.00000000000000	0.00000000000000	15.28454100000000	0.00000000000000	0.00000000000000	0.00000000000000	0.00000000000000	
15.70493800000000	-0.27923200000000	729.89896199999998	45.80704700000000	0.15873900000000	0.00000000000000	0.12836400000000	0.00000000000000	0.00000000000000	0.00000000000000	0.00000000000000	0.00000000000000	0.00000000000000	0.00000000000000	15.38865900000000	0.00000000000000	0.00000000000000	0.00000000000000	0.00000000000000	
15.70660000000000	-0.89555700000000	730.75635499999999	45.84004000000000	0.15772200000000	0.00000000000000	0.12836300000000	0.00000000000000	0.00000000000000	0.00000000000000	0.00000000000000	0.00000000000000	0.00000000000000	0.00000000000000	15.49636500000000	0.00000000000000	0.00000000000000	0.00000000000000	0.00000000000000	
15.70826700000000	-1.51989600000000	731.62996999999996	45.87615800000000	0.15671000000000	0.00000000000000	0.12836300000000	0.00000000000000	0.00000000000000	0.00000000000000	0.00000000000000	0.00000000000000	0.00000000000000	0.00000000000000	15.60750300000000	0.00000000000000	0.00000000000000	0.00000000000000	0.00000000000000	
15.70993700000000	-2.15186100000000	732.52000599999997	45.91537100000000	0.15570400000000	0.00000000000000	0.12836300000000	0.00000000000000	0.00000000000000	0.00000000000000	0.00000000000000	0.00000000000000	0.00000000000000	0.00000000000000	15.72191300000000	0.00000000000000	0.00000000000000	0.00000000000000	0.00000000000000	
15.71160700000000	-2.79105000000000	733.42669500000000	45.95765100000000	0.15470300000000	0.00000000000000	0.12836400000000	0.00000000000000	0.00000000000000	0.00000000000000	0.00000000000000	0.00000000000000	0.00000000000000	0.00000000000000	15.83942500000000	0.00000000000000	0.00000000000000	0.00000000000000	0.00000000000000	
15.71326600000000	-3.43704000000000	734.35029699999996	46.00297900000000	0.15370800000000	0.00000000000000	0.12836500000000	0.00000000000000	0.00000000000000	0.00000000000000	0.00000000000000	0.00000000000000	0.00000000000000	0.00000000000000	15.95986500000000	0.00000000000000	0.00000000000000	0.00000000000000	0.00000000000000	
15.71493800000000	-4.08939700000000	735.29109500000004	46.05134100000000	0.15272000000000	0.00000000000000	0.12836700000000	0.00000000000000	0.00000000000000	0.00000000000000	0.00000000000000	0.00000000000000	0.00000000000000	0.00000000000000	16.08305300000000	0.00000000000000	0.00000000000000	0.00000000000000	0.00000000000000	
15.71660300000000	-4.74767000000000	736.24939300000005	46.10272800000000	0.15174000000000	0.00000000000000	0.12837000000000	0.00000000000000	0.00000000000000	0.00000000000000	0.00000000000000	0.00000000000000	0.00000000000000	0.00000000000000	16.20880400000000	0.00000000000000	0.00000000000000	0.00000000000000	0.00000000000000	
15.71827100000000	-5.41139900000000	737.22550799999999	46.15714100000000	0.15076600000000	0.00000000000000	0.12837300000000	0.00000000000000	0.00000000000000	0.00000000000000	0.00000000000000	0.00000000000000	0.00000000000000	0.00000000000000	16.33692600000000	0.00000000000000	0.00000000000000	0.00000000000000	0.00000000000000	
15.71994400000000	-6.08010900000000	738.21976600000005	46.21458300000000	0.14980100000000	0.00000000000000	0.12837600000000	0.00000000000000	0.00000000000000	0.00000000000000	0.00000000000000	0.00000000000000	0.00000000000000	0.00000000000000	16.46722600000000	0.00000000000000	0.00000000000000	0.00000000000000	0.00000000000000	
15.72159900000000	-6.75331600000000	739.23250099999996	46.27506700000000	0.14884300000000	0.00000000000000	0.12838000000000	0.00000000000000	0.00000000000000	0.00000000000000	0.00000000000000	0.00000000000000	0.00000000000000	0.00000000000000	16.59950100000000	0.00000000000000	0.00000000000000	0.00000000000000	0.00000000000000	
15.72326700000000	-7.43052400000000	740.26404300000002	46.33860900000000	0.14789300000000	0.00000000000000	0.12838500000000	0.00000000000000	0.00000000000000	0.00000000000000	0.00000000000000	0.00000000000000	0.00000000000000	0.00000000000000	16.73355000000000	0.00000000000000	0.00000000000000	0.00000000000000	0.00000000000000	
